


<svg width="389" height="84" viewBox="0 0 389 84" fill="none" xmlns="http://www.w3.org/2000/svg">
<path d="M364.235 1.53315C368.069 1.59015 371.312 4.18015 373.94 7.55015C374.483 8.24615 375.678 8.53615 376.234 7.85015C381.352 1.53215 388.123 2.99015 388.118 9.62915C388.509 23.0982 368.402 42.7572 363.498 26.9742C361.343 20.0372 356.3 15.3362 356.075 10.1602C355.872 5.49415 359.565 1.46415 364.235 1.53315Z" fill="#EA534A"/>
<path d="M29.021 39.743C27.731 34.262 26.119 30.714 21.685 31.52C17.09 32.327 16.768 36.357 17.654 42C18.461 47.724 20.637 49.9 25.152 49.175C29.747 48.449 30.311 45.305 29.021 39.743ZM33.132 61.751C31.036 59.654 31.278 58.042 29.827 58.042C28.134 58.042 27.892 59.654 26.683 61.106C24.829 63.363 22.169 64.411 17.816 64.411C5.079 64.411 0 54.657 0 40.63C0 26.361 7.739 17.897 19.025 17.897C24.345 17.897 26.844 19.348 28.779 21.524C30.069 22.894 30.794 23.862 31.601 23.862C32.487 23.862 32.89 23.379 32.89 21.927C33.052 17.091 32.568 15.801 29.102 15.639C25.958 15.478 24.184 15.075 24.184 11.851C24.184 9.02897 25.716 5.96597 28.376 3.70897C31.036 1.45197 34.583 -3.05176e-05 38.533 -3.05176e-05C43.693 -3.05176e-05 48.127 2.74196 48.127 10.399C48.127 23.782 44.579 38.131 44.579 46.434C44.579 48.369 45.466 48.772 46.514 48.772C47.24 48.772 47.885 48.449 48.852 48.449C50.787 48.449 51.351 49.981 51.351 52.48C51.351 58.607 48.127 64.814 41.435 64.814C38.292 64.814 35.389 64.008 33.132 61.751Z" fill="#4E2096"/>
<path d="M80.5304 40.3073C78.3534 33.3743 76.2574 30.6333 72.0664 31.7623C68.1964 32.7293 67.1484 36.8413 68.7604 43.5313C70.3724 49.7393 73.1134 51.9163 77.1444 50.9493C81.4974 49.9813 82.3034 46.2733 80.5304 40.3073ZM51.6704 41.7593C51.6704 27.7313 58.9254 17.4133 74.8874 17.5743C90.2844 17.7353 97.3784 27.6513 97.3784 41.7593C97.3784 56.0273 90.0424 65.4583 74.4034 65.4583C58.6034 65.4583 51.6704 56.0273 51.6704 41.7593Z" fill="#4E2096"/>
<path d="M120.995 40.5494C117.448 40.5494 114.465 36.6794 114.385 32.8904C114.304 29.9884 116.078 27.8124 118.818 27.5704C122.768 27.3284 124.945 31.9234 125.268 35.8734C125.59 38.2924 124.058 40.5494 120.995 40.5494ZM121.317 67.2324C127.202 67.3134 130.346 67.7964 130.346 70.2954C130.346 72.6334 129.056 72.8754 120.35 72.7144C115.836 72.6334 114.143 72.0694 113.982 69.2484C113.901 66.7484 114.788 67.1514 121.317 67.2324ZM143.472 12.3504C141.037 11.6964 136.063 11.1534 134.01 14.5284C132.941 16.2844 133.62 17.9464 133.14 20.8184C129.133 18.3554 126.487 17.6734 126.235 17.6554C125.187 17.5744 123.655 16.9294 119.06 16.9294C106.968 16.9294 99.1485 22.8144 99.1485 34.9864C99.1485 39.5814 100.68 43.6934 104.147 46.1924C106.968 48.3684 108.258 47.9654 108.339 49.2554C108.419 50.7874 107.694 50.8684 105.114 51.5934C101.245 52.5604 100.277 54.8984 100.277 57.3164C100.277 60.2184 100.922 61.7504 102.857 62.9604C104.953 64.3304 105.759 64.5724 105.759 65.7814C105.759 66.8294 104.227 66.5064 101.97 67.3934C99.4705 68.3604 97.3745 70.0534 97.3745 74.3264C97.3745 80.6144 103.421 83.6774 118.012 83.6774C136.312 83.6774 145.824 79.0824 145.905 69.8924C146.146 58.1234 140.584 54.4144 130.104 54.4144C121.559 54.4954 118.254 56.4304 118.254 53.2064C118.254 51.0284 119.786 51.1904 124.3 50.6254C136.231 49.1754 141.148 42.9674 141.148 34.3414C141.148 29.6034 139.754 26.5724 138.105 24.4044C138.246 24.1804 138.415 24.0144 138.629 23.9704C140.892 23.5074 142.194 28.4104 147.154 28.6864C150.271 28.8594 151.536 27.0884 152.262 23.6984C153.169 19.4664 150.101 14.1324 143.472 12.3504Z" fill="#4E2096"/>
<path d="M167.948 56.6725C167.948 53.8505 168.432 51.7545 170.608 49.9005C172.382 48.5305 173.027 47.4825 173.349 43.0485C173.43 40.7905 173.43 37.0025 173.43 33.6975C173.43 31.0365 173.591 26.8455 173.51 21.4435C173.51 18.1385 172.946 17.7355 170.286 17.4935C167.222 17.0905 165.852 16.4455 165.852 13.3015C165.852 9.75446 167.867 6.61045 170.85 4.51445C173.51 2.58045 176.735 1.53246 180.362 1.53246C186.892 1.53246 190.923 5.15946 190.923 10.6415C190.923 13.5435 190.359 15.4775 189.391 18.2995C187.698 24.0225 187.618 25.5555 188.988 25.5555C190.278 25.5555 190.52 24.0225 192.213 22.1695C194.389 19.7505 197.291 17.6555 202.37 17.6555C210.754 17.6555 215.591 22.3305 215.591 30.4725C215.591 35.5505 214.865 39.8235 214.865 44.4995C214.865 47.2405 215.188 48.7715 217.042 49.9805C219.46 51.7545 220.025 53.7705 220.025 56.6725C220.025 63.7655 216.478 64.4915 205.998 64.4915C196.324 64.4115 194.631 61.9115 194.631 56.7525C194.631 52.7215 195.84 51.1905 196.888 50.0615C198.339 48.7715 198.743 47.4015 198.743 44.7405C198.823 42.6455 198.823 40.9525 198.743 39.5005C198.662 36.1155 197.694 33.6165 194.389 33.6165C190.197 33.6165 189.149 36.6795 189.069 41.6785C188.988 42.3235 188.907 44.5805 188.907 45.5475C188.907 47.8855 189.552 48.8525 190.681 50.1425C192.051 51.6735 192.777 53.5285 192.777 56.7525C192.777 61.9115 190.681 64.4915 181.33 64.4915C171.253 64.4915 167.948 63.6855 167.948 56.6725Z" fill="#4E2096"/>
<path d="M267.097 57.6395C267.097 54.7375 267.5 52.5605 269.757 51.0285C271.531 49.9005 272.256 48.7715 272.498 46.5955C272.74 43.4515 272.659 39.5005 272.659 37.0025C272.659 34.4225 271.692 34.0195 269.354 33.9385C266.613 33.7775 264.759 32.9715 264.759 29.9075C264.759 26.5225 266.452 23.4585 269.032 21.2825C271.531 19.2675 274.755 17.9775 278.06 17.9775C282.172 17.9775 284.59 20.1535 284.671 23.3785C284.671 25.0715 284.51 25.9575 285.799 25.9575C286.767 25.9575 287.25 24.9105 288.621 22.4915C290.153 19.8315 292.571 17.5745 297.327 17.5745C304.502 17.5745 307.565 22.7335 307.485 30.9555C307.404 37.8075 305.066 41.1135 299.02 41.1135C296.199 41.1135 294.506 40.3885 293.297 38.4525C291.926 36.1955 291.845 33.8575 289.83 33.8575C287.815 33.8575 287.815 35.4705 287.734 37.3245C287.653 40.4685 287.815 42.6455 288.057 45.8695C288.137 47.7235 288.54 48.8525 291.442 50.2235C294.909 51.9965 296.199 53.2055 296.199 57.5585C296.199 62.8795 293.941 64.4915 282.091 64.4915C269.999 64.4915 267.097 64.4915 267.097 57.6395Z" fill="#4E2096"/>
<path d="M337.309 40.3073C335.132 33.3743 333.037 30.6333 328.845 31.7623C324.975 32.7293 323.927 36.8413 325.539 43.5313C327.152 49.7393 329.893 51.9163 333.923 50.9493C338.276 49.9813 339.082 46.2733 337.309 40.3073ZM308.449 41.7593C308.449 27.7313 315.705 17.4133 331.666 17.5743C347.063 17.7353 354.157 27.6513 354.157 41.7593C354.157 56.0273 346.821 65.4583 331.182 65.4583C315.382 65.4583 308.449 56.0273 308.449 41.7593Z" fill="#4E2096"/>
<path d="M250.744 33.1879C250.297 29.6849 247.176 26.5829 243.159 26.7839C238.03 26.9839 235.909 30.1859 236.243 35.0889C236.356 36.9899 237.247 37.2909 239.144 37.2909C249.74 37.2909 251.08 35.8889 250.744 33.1879ZM220.139 42.7639C220.139 29.4039 227.381 17.5729 243.155 17.5729C255.227 17.5729 263.678 24.1719 263.678 37.8539C263.678 44.2119 262.309 45.1779 254.341 45.1779H237.843C236.878 45.1779 236.234 45.4989 236.234 46.6259C236.234 49.2009 241.223 50.8909 247.42 50.8909C249.412 50.8909 251.037 50.7449 252.402 50.5149C254.21 50.2099 260.486 48.6409 261.52 52.5749C261.693 53.2329 261.658 53.9299 261.498 54.5919C259.831 61.4999 252.614 65.4579 243.155 65.4579C229.394 65.4579 220.139 56.3639 220.139 42.7639Z" fill="#4E2096"/>
</svg>